<?xml version="1.0" encoding="UTF-8" standalone="no"?>
<!DOCTYPE svg PUBLIC "-//W3C//DTD SVG 1.1//EN" "http://www.w3.org/Graphics/SVG/1.1/DTD/svg11.dtd">
<svg width="100%" height="100%" viewBox="0 0 830 132" version="1.1" xmlns="http://www.w3.org/2000/svg" xmlns:xlink="http://www.w3.org/1999/xlink" xml:space="preserve" xmlns:serif="http://www.serif.com/" style="fill-rule:evenodd;clip-rule:evenodd;stroke-linejoin:round;stroke-miterlimit:2;">
    <g transform="matrix(1,0,0,1,-229.818,-390.563)">
        <path d="M251.153,493.557L229.818,421.055L244.404,421.055L258.611,474.298L259.319,474.298L273.574,421.055L288.159,421.055L302.32,474.062L303.028,474.062L317.141,421.055L331.726,421.055L310.438,493.557L296.042,493.557L281.315,441.21L280.229,441.21L265.503,493.557L251.153,493.557Z" style="fill:white;fill-rule:nonzero;"/>
        <path d="M366.138,495.02C358.995,495.02 352.851,493.486 347.706,490.418C342.561,487.35 338.596,483.023 335.811,477.437C333.026,471.852 331.634,465.299 331.634,457.778C331.634,450.352 333.026,443.806 335.811,438.142C338.596,432.478 342.498,428.057 347.517,424.879C352.536,421.7 358.412,420.111 365.146,420.111C369.237,420.111 373.202,420.788 377.041,422.141C380.88,423.494 384.326,425.618 387.378,428.513C390.431,431.408 392.838,435.161 394.6,439.771C396.362,444.381 397.243,449.974 397.243,456.551L397.243,461.554L339.611,461.554L339.611,450.981L383.413,450.981C383.413,447.268 382.658,443.972 381.148,441.092C379.637,438.213 377.521,435.939 374.799,434.272C372.077,432.604 368.891,431.77 365.241,431.77C361.276,431.77 357.822,432.738 354.88,434.673C351.938,436.608 349.672,439.126 348.083,442.225C346.494,445.325 345.7,448.684 345.7,452.303L345.7,460.563C345.7,465.409 346.557,469.531 348.272,472.93C349.987,476.328 352.386,478.916 355.47,480.694C358.554,482.472 362.157,483.361 366.279,483.361C368.954,483.361 371.393,482.976 373.596,482.205C375.798,481.434 377.702,480.277 379.307,478.735C380.912,477.193 382.139,475.29 382.989,473.024L396.347,475.431C395.277,479.365 393.365,482.803 390.612,485.745C387.858,488.687 384.412,490.968 380.275,492.589C376.137,494.209 371.424,495.02 366.138,495.02Z" style="fill:white;fill-rule:nonzero;"/>
        <path d="M406.119,493.557L406.119,396.888L420.232,396.888L420.232,432.808L421.082,432.808C421.9,431.298 423.08,429.552 424.622,427.569C426.164,425.587 428.304,423.848 431.041,422.353C433.779,420.859 437.398,420.111 441.898,420.111C447.751,420.111 452.974,421.59 457.569,424.548C462.163,427.506 465.774,431.77 468.401,437.34C471.029,442.91 472.343,449.612 472.343,457.448C472.343,465.283 471.037,471.993 468.425,477.579C465.813,483.164 462.226,487.46 457.663,490.465C453.1,493.47 447.892,494.973 442.039,494.973C437.634,494.973 434.039,494.233 431.254,492.754C428.469,491.275 426.29,489.544 424.716,487.562C423.143,485.58 421.932,483.817 421.082,482.275L419.902,482.275L419.902,493.557L406.119,493.557ZM419.949,457.306C419.949,462.404 420.689,466.872 422.168,470.711C423.647,474.55 425.786,477.547 428.587,479.703C431.388,481.858 434.818,482.936 438.877,482.936C443.093,482.936 446.618,481.811 449.45,479.561C452.282,477.311 454.43,474.251 455.893,470.381C457.356,466.51 458.088,462.152 458.088,457.306C458.088,452.523 457.372,448.228 455.94,444.42C454.508,440.612 452.369,437.607 449.521,435.405C446.673,433.202 443.125,432.1 438.877,432.1C434.786,432.1 431.332,433.155 428.516,435.263C425.7,437.371 423.568,440.313 422.12,444.09C420.673,447.866 419.949,452.271 419.949,457.306Z" style="fill:white;fill-rule:nonzero;"/>
        <path d="M494.293,450.509L494.293,493.557L480.18,493.557L480.18,396.888L494.104,396.888L494.104,432.856L495.001,432.856C496.7,428.954 499.296,425.854 502.789,423.557C506.282,421.26 510.845,420.111 516.478,420.111C521.45,420.111 525.8,421.134 529.529,423.179C533.258,425.225 536.153,428.269 538.214,432.313C540.275,436.356 541.306,441.399 541.306,447.441L541.306,493.557L527.192,493.557L527.192,449.14C527.192,443.822 525.823,439.692 523.086,436.75C520.348,433.808 516.541,432.336 511.663,432.336C508.328,432.336 505.346,433.044 502.718,434.461C500.091,435.877 498.03,437.946 496.535,440.667C495.04,443.389 494.293,446.67 494.293,450.509Z" style="fill:white;fill-rule:nonzero;"/>
        <path d="M582.75,495.02C575.953,495.02 570.022,493.462 564.955,490.347C559.889,487.232 555.956,482.873 553.155,477.272C550.354,471.671 548.954,465.126 548.954,457.636C548.954,450.116 550.354,443.539 553.155,437.906C555.956,432.274 559.889,427.9 564.955,424.784C570.022,421.669 575.953,420.111 582.75,420.111C589.547,420.111 595.479,421.669 600.545,424.784C605.611,427.9 609.545,432.274 612.345,437.906C615.146,443.539 616.546,450.116 616.546,457.636C616.546,465.126 615.146,471.671 612.345,477.272C609.545,482.873 605.611,487.232 600.545,490.347C595.479,493.462 589.547,495.02 582.75,495.02ZM582.797,483.172C587.203,483.172 590.853,482.008 593.748,479.679C596.643,477.351 598.791,474.251 600.191,470.381C601.591,466.51 602.291,462.246 602.291,457.589C602.291,452.963 601.591,448.707 600.191,444.821C598.791,440.935 596.643,437.812 593.748,435.452C590.853,433.092 587.203,431.912 582.797,431.912C578.36,431.912 574.687,433.092 571.776,435.452C568.865,437.812 566.71,440.935 565.309,444.821C563.909,448.707 563.209,452.963 563.209,457.589C563.209,462.246 563.909,466.51 565.309,470.381C566.71,474.251 568.865,477.351 571.776,479.679C574.687,482.008 578.36,483.172 582.797,483.172Z" style="fill:white;fill-rule:nonzero;"/>
        <path d="M654.828,495.02C648.031,495.02 642.1,493.462 637.034,490.347C631.967,487.232 628.034,482.873 625.233,477.272C622.433,471.671 621.032,465.126 621.032,457.636C621.032,450.116 622.433,443.539 625.233,437.906C628.034,432.274 631.967,427.9 637.034,424.784C642.1,421.669 648.031,420.111 654.828,420.111C661.625,420.111 667.557,421.669 672.623,424.784C677.69,427.9 681.623,432.274 684.424,437.906C687.224,443.539 688.625,450.116 688.625,457.636C688.625,465.126 687.224,471.671 684.424,477.272C681.623,482.873 677.69,487.232 672.623,490.347C667.557,493.462 661.625,495.02 654.828,495.02ZM654.876,483.172C659.281,483.172 662.931,482.008 665.826,479.679C668.721,477.351 670.869,474.251 672.269,470.381C673.67,466.51 674.37,462.246 674.37,457.589C674.37,452.963 673.67,448.707 672.269,444.821C670.869,440.935 668.721,437.812 665.826,435.452C662.931,433.092 659.281,431.912 654.876,431.912C650.439,431.912 646.765,433.092 643.854,435.452C640.943,437.812 638.788,440.935 637.388,444.821C635.987,448.707 635.287,452.963 635.287,457.589C635.287,462.246 635.987,466.51 637.388,470.381C638.788,474.251 640.943,477.351 643.854,479.679C646.765,482.008 650.439,483.172 654.876,483.172Z" style="fill:white;fill-rule:nonzero;"/>
        <path d="M709.348,468.965L709.253,451.736L711.708,451.736L740.595,421.055L757.493,421.055L724.547,455.984L722.328,455.984L709.348,468.965ZM696.367,493.557L696.367,396.888L710.481,396.888L710.481,493.557L696.367,493.557ZM742.153,493.557L716.192,459.1L725.915,449.235L759.476,493.557L742.153,493.557Z" style="fill:white;fill-rule:nonzero;"/>
        <path d="M801.109,421.055L801.109,438.048L755.371,438.048L755.371,421.055L801.109,421.055ZM764.953,403.685L788.034,403.685L788.034,470.758C788.034,472.174 788.262,473.315 788.719,474.18C789.175,475.046 789.844,475.659 790.725,476.021C791.606,476.383 792.66,476.564 793.887,476.564C794.768,476.564 795.704,476.478 796.696,476.304C797.687,476.131 798.434,475.982 798.938,475.856L802.431,492.518C801.329,492.833 799.78,493.226 797.781,493.698C795.783,494.17 793.399,494.469 790.63,494.595C785.218,494.847 780.584,494.209 776.73,492.683C772.875,491.157 769.933,488.773 767.903,485.532C765.873,482.291 764.89,478.216 764.953,473.307L764.953,403.685Z" style="fill:rgb(80,70,229);fill-rule:nonzero;"/>
        <path d="M829.526,452.208L829.526,493.557L806.445,493.557L806.445,396.888L828.771,396.888L828.771,434.366L829.573,434.366C831.21,429.898 833.892,426.405 837.621,423.887C841.35,421.37 845.921,420.111 851.333,420.111C856.431,420.111 860.868,421.236 864.644,423.486C868.42,425.736 871.354,428.906 873.447,432.997C875.539,437.088 876.57,441.871 876.539,447.346L876.539,493.557L853.457,493.557L853.457,451.878C853.489,447.85 852.482,444.703 850.436,442.438C848.391,440.172 845.512,439.039 841.798,439.039C839.375,439.039 837.244,439.566 835.403,440.62C833.562,441.674 832.13,443.177 831.107,445.128C830.085,447.079 829.558,449.439 829.526,452.208Z" style="fill:rgb(80,70,229);fill-rule:nonzero;"/>
        <path d="M882.913,493.557L882.913,421.055L905.994,421.055L905.994,493.557L882.913,493.557ZM894.477,412.606C891.236,412.606 888.451,411.529 886.122,409.373C883.794,407.218 882.629,404.614 882.629,401.561C882.629,398.54 883.794,395.952 886.122,393.797C888.451,391.641 891.236,390.563 894.477,390.563C897.75,390.563 900.542,391.641 902.855,393.797C905.168,395.952 906.324,398.54 906.324,401.561C906.324,404.614 905.168,407.218 902.855,409.373C900.542,411.529 897.75,412.606 894.477,412.606Z" style="fill:rgb(80,70,229);fill-rule:nonzero;"/>
        <path d="M935.733,452.208L935.733,493.557L912.651,493.557L912.651,421.055L934.6,421.055L934.6,434.366L935.402,434.366C937.007,429.929 939.745,426.444 943.615,423.911C947.486,421.378 952.096,420.111 957.445,420.111C962.543,420.111 966.972,421.252 970.733,423.533C974.493,425.815 977.419,428.993 979.512,433.068C981.605,437.143 982.635,441.903 982.604,447.346L982.604,493.557L959.522,493.557L959.522,451.878C959.554,447.85 958.539,444.703 956.478,442.438C954.417,440.172 951.561,439.039 947.911,439.039C945.488,439.039 943.356,439.566 941.515,440.62C939.674,441.674 938.258,443.177 937.267,445.128C936.276,447.079 935.764,449.439 935.733,452.208Z" style="fill:rgb(80,70,229);fill-rule:nonzero;"/>
        <path d="M1022.77,522.255C1015.88,522.255 1009.98,521.295 1005.07,519.376C1000.16,517.456 996.31,514.829 993.509,511.493C990.708,508.157 989.025,504.381 988.459,500.165L1010.31,498.937C1010.72,500.416 1011.49,501.707 1012.6,502.808C1013.72,503.909 1015.18,504.759 1016.99,505.357C1018.8,505.955 1020.93,506.254 1023.39,506.254C1027.26,506.254 1030.46,505.318 1032.99,503.445C1035.53,501.573 1036.79,498.308 1036.79,493.651L1036.79,480.907L1035.99,480.907C1035.08,483.141 1033.69,485.139 1031.84,486.901C1029.98,488.663 1027.67,490.048 1024.92,491.055C1022.17,492.062 1019.01,492.565 1015.46,492.565C1010.17,492.565 1005.33,491.33 1000.94,488.86C996.554,486.39 993.045,482.551 990.417,477.343C987.79,472.135 986.476,465.425 986.476,457.212C986.476,448.747 987.829,441.769 990.535,436.278C993.242,430.787 996.79,426.72 1001.18,424.076C1005.57,421.433 1010.3,420.111 1015.36,420.111C1019.17,420.111 1022.44,420.764 1025.16,422.07C1027.88,423.376 1030.12,425.052 1031.88,427.097C1033.65,429.143 1034.98,431.267 1035.9,433.469L1036.56,433.469L1036.56,421.055L1059.54,421.055L1059.54,493.84C1059.54,499.976 1058,505.152 1054.92,509.369C1051.83,513.586 1047.52,516.787 1041.99,518.974C1036.45,521.161 1030.04,522.255 1022.77,522.255ZM1023.48,475.762C1026.28,475.762 1028.67,475.022 1030.66,473.543C1032.64,472.064 1034.16,469.94 1035.24,467.171C1036.31,464.402 1036.84,461.082 1036.84,457.212C1036.84,453.278 1036.31,449.887 1035.26,447.04C1034.2,444.192 1032.68,441.997 1030.68,440.455C1028.68,438.913 1026.28,438.142 1023.48,438.142C1020.62,438.142 1018.2,438.929 1016.21,440.502C1014.23,442.076 1012.73,444.286 1011.71,447.134C1010.68,449.982 1010.17,453.341 1010.17,457.212C1010.17,461.082 1010.69,464.402 1011.73,467.171C1012.77,469.94 1014.27,472.064 1016.24,473.543C1018.2,475.022 1020.62,475.762 1023.48,475.762Z" style="fill:rgb(80,70,229);fill-rule:nonzero;"/>
    </g>
</svg>